<svg width="1024" height="1024" viewBox="0 0 1024 1024" fill="none" xmlns="http://www.w3.org/2000/svg">
<g clip-path="url(#clip0_128_26)">
<path d="M512 1024C794.77 1024 1024 794.77 1024 512C1024 229.23 794.77 0 512 0C229.23 0 0 229.23 0 512C0 794.77 229.23 1024 512 1024Z" fill="#DC343B"/>
<path d="M608.2 283.6C583.4 299.2 548.2 323.6 500.8 353.8C460.301 379.316 421.364 407.233 384.2 437.4C368 454.2 355.2 497.4 325.4 533.8C306.246 557.752 284.812 579.789 261.4 599.6C284.019 595.244 305.687 586.916 325.4 575C350.689 560.35 373.227 541.399 392 519C400.181 506.026 409.2 493.6 419 481.8C442.6 459.4 525.2 425.8 575.6 409.8C626 393.8 637.6 403.6 687.6 394.2C711.095 391.685 733.936 384.908 755 374.2L792 260L608.2 327.8V283.6Z" fill="white"/>
<path d="M792 403L721.8 525.4H665.8L512 494.4V474.4L583.4 432L635.8 423.6L792 403ZM449.6 526.6L443.4 588.4L410.8 598L376.6 586.6L449.6 526.6Z" fill="white"/>
<path d="M261.4 612C258.059 618.163 256.145 624.998 255.8 632C255.8 641 232 646 232 674.2C232.967 686.202 236.888 697.779 243.413 707.899C249.939 718.018 258.866 726.367 269.4 732.2L318.8 764C313.643 753.228 311.304 741.323 312 729.4C311.895 723.882 313.314 718.441 316.102 713.678C318.89 708.914 322.938 705.012 327.8 702.4C341.2 691.8 463.2 670.6 499.6 675.8C525.609 680.4 549.334 693.564 567 713.2L732 592L689.4 553.2H661.4L622.6 534.6H510.4L463.2 633.2C400.267 630.133 362.467 627.867 349.8 626.4C337 624.8 307.8 620.6 261.4 612Z" fill="white"/>
</g>
<defs>
<clipPath id="clip0_128_26">
<rect width="1024" height="1024" fill="white"/>
</clipPath>
</defs>
</svg>
