<svg width="1080" height="1080" viewBox="0 0 1080 1080" fill="none" xmlns="http://www.w3.org/2000/svg">
<g clip-path="url(#clip0_128_10)">
<path d="M702.337 154.575C660.487 180.9 601.087 222.075 521.1 273.038C452.757 316.096 387.053 363.205 324.337 414.113C297 442.463 275.4 515.363 225.112 576.788C192.789 617.207 156.62 654.394 117.112 687.825C155.282 680.475 191.847 666.42 225.112 646.313C267.787 621.59 305.82 589.611 337.5 551.813C351.306 529.919 366.526 508.949 383.062 489.038C422.887 451.238 562.275 394.538 647.325 367.538C732.375 340.538 751.95 357.075 836.325 341.213C875.973 336.969 914.516 325.532 950.062 307.463L1012.5 114.75L702.337 229.163V154.575Z" fill="white"/>
<path d="M1012.5 356.062L894.037 562.612H799.537L540 510.3V476.55L660.487 405L748.912 390.825L1012.5 356.062ZM434.7 564.637L424.237 668.925L369.225 685.125L311.512 665.887L434.7 564.637Z" fill="white"/>
<path d="M117.113 708.75C111.474 719.15 108.245 730.684 107.663 742.5C107.663 757.688 67.5 766.125 67.5 813.713C69.1317 833.966 75.7482 853.502 86.7599 870.579C97.7716 887.656 112.837 901.744 130.612 911.588L213.975 965.25C205.273 947.071 201.325 926.982 202.5 906.863C202.323 897.55 204.718 888.37 209.422 880.331C214.126 872.292 220.957 865.707 229.162 861.3C251.775 843.413 457.65 807.638 519.075 816.413C562.966 824.175 603.001 846.39 632.812 879.525L911.25 675L839.363 609.525H792.112L726.638 578.137H537.3L457.65 744.525C351.45 739.35 287.662 735.525 266.287 733.05C244.687 730.35 195.412 723.263 117.113 708.75Z" fill="white"/>
</g>
<defs>
<clipPath id="clip0_128_10">
<rect width="1080" height="1080" fill="white"/>
</clipPath>
</defs>
</svg>
